<svg width="960" height="420" viewBox="0 0 960 420" fill="none" xmlns="http://www.w3.org/2000/svg">
  <defs>
    <linearGradient id="cloudTop" x1="0" y1="0" x2="0" y2="1">
      <stop offset="0%" stop-color="#FFFFFF" stop-opacity="0.98"/>
      <stop offset="100%" stop-color="#EAF5FF" stop-opacity="0.95"/>
    </linearGradient>
    <filter id="soft" x="-12%" y="-18%" width="124%" height="136%">
      <feGaussianBlur stdDeviation="4.4"/>
    </filter>
  </defs>

  <g filter="url(#soft)">
    <ellipse cx="106" cy="240" rx="96" ry="70" fill="url(#cloudTop)"/>
    <ellipse cx="188" cy="210" rx="88" ry="72" fill="url(#cloudTop)"/>
    <ellipse cx="274" cy="198" rx="82" ry="68" fill="url(#cloudTop)"/>
    <ellipse cx="352" cy="216" rx="98" ry="76" fill="url(#cloudTop)"/>
    <ellipse cx="446" cy="186" rx="78" ry="64" fill="url(#cloudTop)"/>
    <ellipse cx="528" cy="220" rx="94" ry="72" fill="url(#cloudTop)"/>
    <ellipse cx="616" cy="204" rx="88" ry="70" fill="url(#cloudTop)"/>
    <ellipse cx="708" cy="226" rx="104" ry="74" fill="url(#cloudTop)"/>
    <ellipse cx="806" cy="198" rx="84" ry="66" fill="url(#cloudTop)"/>
    <ellipse cx="876" cy="226" rx="82" ry="64" fill="url(#cloudTop)"/>
    <ellipse cx="174" cy="278" rx="116" ry="38" fill="#D8EEFF" fill-opacity="0.64"/>
    <ellipse cx="344" cy="286" rx="130" ry="42" fill="#D8EEFF" fill-opacity="0.62"/>
    <ellipse cx="528" cy="286" rx="144" ry="44" fill="#D8EEFF" fill-opacity="0.6"/>
    <ellipse cx="718" cy="286" rx="136" ry="42" fill="#D8EEFF" fill-opacity="0.62"/>
    <ellipse cx="856" cy="278" rx="106" ry="36" fill="#D8EEFF" fill-opacity="0.64"/>
  </g>
</svg>
